<svg width="179" height="50" viewBox="0 0 179 50" fill="none" xmlns="http://www.w3.org/2000/svg">
<path d="M164.629 16.3635H167.699V21.0745L167.511 23.1604H167.699C168.027 22.6135 168.496 22.1682 169.105 21.8245C169.73 21.4651 170.425 21.2854 171.191 21.2854C172.675 21.2854 173.769 21.7229 174.472 22.5979C175.191 23.4729 175.55 24.6682 175.55 26.1838V33.1448H172.48V26.5588C172.48 25.762 172.293 25.1604 171.918 24.7542C171.543 24.3323 171.019 24.1213 170.347 24.1213C169.925 24.1213 169.55 24.2151 169.222 24.4026C168.894 24.5745 168.613 24.8167 168.379 25.1292C168.16 25.4417 167.988 25.8088 167.863 26.2307C167.754 26.637 167.699 27.0745 167.699 27.5432V33.1448H164.629V16.3635Z" fill="white"/>
<path d="M163.459 30.2151C162.959 31.1838 162.255 31.9807 161.349 32.6057C160.459 33.2151 159.341 33.5198 157.998 33.5198C157.107 33.5198 156.287 33.3713 155.537 33.0745C154.802 32.762 154.162 32.3323 153.615 31.7854C153.084 31.2385 152.662 30.5979 152.349 29.8635C152.052 29.1135 151.904 28.2932 151.904 27.4026C151.904 26.512 152.052 25.6917 152.349 24.9417C152.662 24.1917 153.084 23.551 153.615 23.0198C154.162 22.4729 154.802 22.051 155.537 21.7542C156.287 21.4417 157.107 21.2854 157.998 21.2854C159.326 21.2854 160.443 21.5901 161.349 22.1995C162.255 22.8088 162.919 23.5979 163.341 24.5667L160.529 25.7385C160.263 25.2073 159.919 24.8088 159.498 24.5432C159.091 24.262 158.576 24.1213 157.951 24.1213C157.544 24.1213 157.162 24.1995 156.802 24.3557C156.443 24.512 156.123 24.7307 155.841 25.012C155.576 25.2932 155.365 25.637 155.209 26.0432C155.052 26.4495 154.974 26.9026 154.974 27.4026C154.974 27.9026 155.052 28.3557 155.209 28.762C155.365 29.1682 155.576 29.512 155.841 29.7932C156.123 30.0745 156.443 30.2932 156.802 30.4495C157.162 30.6057 157.544 30.6838 157.951 30.6838C158.591 30.6838 159.13 30.5432 159.568 30.262C160.021 29.9651 160.38 29.5432 160.646 28.9963L163.459 30.2151Z" fill="white"/>
<path d="M151 30.3792C150.469 31.3167 149.75 32.0745 148.844 32.6526C147.954 33.2307 146.86 33.5198 145.563 33.5198C144.688 33.5198 143.875 33.3713 143.125 33.0745C142.391 32.762 141.75 32.3323 141.204 31.7854C140.657 31.2385 140.227 30.5979 139.914 29.8635C139.618 29.1135 139.469 28.2932 139.469 27.4026C139.469 26.5745 139.618 25.7932 139.914 25.0588C140.211 24.3088 140.625 23.6604 141.157 23.1135C141.688 22.551 142.313 22.1057 143.032 21.7776C143.766 21.4495 144.571 21.2854 145.446 21.2854C146.368 21.2854 147.188 21.4417 147.907 21.7542C148.625 22.051 149.227 22.4729 149.711 23.0198C150.196 23.551 150.563 24.1838 150.813 24.9182C151.063 25.6526 151.188 26.4495 151.188 27.3088C151.188 27.4182 151.188 27.512 151.188 27.5901C151.172 27.6838 151.164 27.7698 151.164 27.8479C151.149 27.926 151.141 28.012 151.141 28.1057H142.493C142.555 28.5745 142.68 28.9807 142.868 29.3245C143.071 29.6526 143.313 29.9338 143.594 30.1682C143.891 30.387 144.211 30.551 144.555 30.6604C144.899 30.7542 145.25 30.801 145.61 30.801C146.313 30.801 146.891 30.6448 147.344 30.3323C147.813 30.0042 148.18 29.5979 148.446 29.1135L151 30.3792ZM148.211 25.926C148.196 25.7229 148.125 25.4963 148 25.2463C147.891 24.9963 147.719 24.762 147.485 24.5432C147.266 24.3245 146.985 24.1448 146.641 24.0042C146.313 23.8635 145.914 23.7932 145.446 23.7932C144.789 23.7932 144.211 23.9807 143.711 24.3557C143.211 24.7307 142.86 25.2542 142.657 25.926H148.211Z" fill="white"/>
<path d="M132.979 33.1448V19.3635H128.291V16.3635H140.83V19.3635H136.143V33.1448H132.979Z" fill="white"/>
<path d="M127.596 30.3792C127.065 31.3167 126.346 32.0745 125.44 32.6526C124.549 33.2307 123.455 33.5198 122.158 33.5198C121.283 33.5198 120.471 33.3713 119.721 33.0745C118.986 32.762 118.346 32.3323 117.799 31.7854C117.252 31.2385 116.822 30.5979 116.51 29.8635C116.213 29.1135 116.065 28.2932 116.065 27.4026C116.065 26.5745 116.213 25.7932 116.51 25.0588C116.807 24.3088 117.221 23.6604 117.752 23.1135C118.283 22.551 118.908 22.1057 119.627 21.7776C120.361 21.4495 121.166 21.2854 122.041 21.2854C122.963 21.2854 123.783 21.4417 124.502 21.7542C125.221 22.051 125.822 22.4729 126.307 23.0198C126.791 23.551 127.158 24.1838 127.408 24.9182C127.658 25.6526 127.783 26.4495 127.783 27.3088C127.783 27.4182 127.783 27.512 127.783 27.5901C127.768 27.6838 127.76 27.7698 127.76 27.8479C127.744 27.926 127.736 28.012 127.736 28.1057H119.088C119.151 28.5745 119.276 28.9807 119.463 29.3245C119.666 29.6526 119.908 29.9338 120.19 30.1682C120.486 30.387 120.807 30.551 121.151 30.6604C121.494 30.7542 121.846 30.801 122.205 30.801C122.908 30.801 123.486 30.6448 123.94 30.3323C124.408 30.0042 124.776 29.5979 125.041 29.1135L127.596 30.3792ZM124.807 25.926C124.791 25.7229 124.721 25.4963 124.596 25.2463C124.486 24.9963 124.315 24.762 124.08 24.5432C123.861 24.3245 123.58 24.1448 123.236 24.0042C122.908 23.8635 122.51 23.7932 122.041 23.7932C121.385 23.7932 120.807 23.9807 120.307 24.3557C119.807 24.7307 119.455 25.2542 119.252 25.926H124.807Z" fill="white"/>
<path d="M108.589 21.6604H111.472V23.2542H111.659C111.8 22.9729 111.988 22.7151 112.222 22.4807C112.456 22.2463 112.714 22.0432 112.995 21.8713C113.292 21.6995 113.605 21.5667 113.933 21.4729C114.277 21.3792 114.613 21.3323 114.941 21.3323C115.347 21.3323 115.691 21.3713 115.972 21.4495C116.269 21.5276 116.519 21.6291 116.722 21.7541L115.902 24.5432C115.714 24.4495 115.503 24.3791 115.269 24.3323C115.05 24.2698 114.777 24.2385 114.449 24.2385C114.027 24.2385 113.644 24.3245 113.3 24.4963C112.956 24.6526 112.659 24.8791 112.409 25.176C112.175 25.4729 111.988 25.8245 111.847 26.2307C111.722 26.6213 111.659 27.051 111.659 27.5198V33.1448H108.589V21.6604Z" fill="white"/>
<path d="M103.779 31.6448H103.592C103.232 32.2229 102.748 32.6838 102.139 33.0276C101.529 33.3557 100.834 33.5198 100.053 33.5198C98.5996 33.5198 97.5137 33.0745 96.795 32.1838C96.0918 31.2932 95.7403 30.1057 95.7403 28.6213V21.6604H98.8106V28.2463C98.8106 29.0745 98.9903 29.6917 99.3496 30.0979C99.7246 30.4885 100.264 30.6838 100.967 30.6838C101.389 30.6838 101.756 30.5979 102.068 30.426C102.397 30.2385 102.67 29.9963 102.889 29.6995C103.123 29.387 103.295 29.0276 103.404 28.6213C103.529 28.1995 103.592 27.7542 103.592 27.2854V21.6604H106.662V33.1448H103.779V31.6448Z" fill="white"/>
<path d="M88.3957 24.2854H86.3801V21.6604H88.3957V18.1448H91.466V21.6604H94.2785V24.2854H91.466V28.7385C91.466 29.0042 91.4895 29.2542 91.5363 29.4885C91.5988 29.7073 91.7082 29.8948 91.8645 30.051C92.0832 30.301 92.3957 30.426 92.802 30.426C93.0676 30.426 93.2785 30.4026 93.4348 30.3557C93.591 30.2932 93.7395 30.2151 93.8801 30.1213L94.7473 32.8167C94.3879 32.9885 93.9973 33.1135 93.5754 33.1917C93.1692 33.2854 92.716 33.3323 92.216 33.3323C91.6379 33.3323 91.1145 33.2463 90.6457 33.0745C90.1926 32.887 89.8098 32.637 89.4973 32.3245C88.7629 31.6213 88.3957 30.6213 88.3957 29.3245V24.2854Z" fill="white"/>
<path d="M82.2058 31.6448H82.0183C81.659 32.2229 81.1746 32.6838 80.5652 33.0276C79.9558 33.3557 79.2605 33.5198 78.4793 33.5198C77.0262 33.5198 75.9402 33.0745 75.2215 32.1838C74.5183 31.2932 74.1668 30.1057 74.1668 28.6213V21.6604H77.2371V28.2463C77.2371 29.0745 77.4168 29.6917 77.7762 30.0979C78.1512 30.4885 78.6902 30.6838 79.3933 30.6838C79.8152 30.6838 80.1824 30.5979 80.4949 30.426C80.823 30.2385 81.0965 29.9963 81.3152 29.6995C81.5496 29.387 81.7215 29.0276 81.8308 28.6213C81.9558 28.1995 82.0183 27.7542 82.0183 27.2854V21.6604H85.0887V33.1448H82.2058V31.6448Z" fill="white"/>
<path d="M62.7273 16.3635H73.3679V19.3635H65.8913V23.4416H72.6179V26.4417H65.8913V33.1448H62.7273V16.3635Z" fill="white"/>
<path d="M33.3333 49.9999V41.6666C37.9444 41.6666 41.6666 37.9444 41.6666 33.3333H50C50 42.5555 42.5277 49.9999 33.3333 49.9999Z" fill="#FFD11A"/>
<path d="M33.3333 49.9999V41.6666C28.7222 41.6666 25 37.9444 25 33.3333H16.6667C16.6667 42.5555 24.1389 49.9999 33.3333 49.9999Z" fill="#FFD11A"/>
<path d="M0 33.3335H8.33333C8.33333 37.9446 12.0556 41.6668 16.6667 41.6668V50.0002C7.47222 50.0002 0 42.5557 0 33.3335Z" fill="#FFD11A"/>
<path d="M0 33.3334H8.33333C8.33333 28.7223 12.0556 25.0001 16.6667 25.0001V16.6667C7.47222 16.6667 0 24.139 0 33.3334Z" fill="#FFD11A"/>
<path d="M16.6667 0V8.33333C12.0556 8.33333 8.33333 12.0556 8.33333 16.6667H0C0 7.47222 7.47222 0 16.6667 0Z" fill="#FFD11A"/>
<path d="M16.6667 0V8.33333C21.2778 8.33333 25 12.0556 25 16.6667H33.3333C33.3333 7.47222 25.8611 0 16.6667 0Z" fill="#FFD11A"/>
<path d="M50 16.6667H41.6667C41.6667 12.0556 37.9445 8.33333 33.3333 8.33333V0C42.5278 0 50 7.47222 50 16.6667Z" fill="#FFD11A"/>
<path d="M50 16.6667H41.6667C41.6667 21.2779 37.9445 25.0001 33.3334 25.0001V33.3334C42.5278 33.3334 50 25.889 50 16.6667Z" fill="#FFD11A"/>
</svg>
