<svg width="40" height="40" viewBox="0 0 40 40" fill="none" xmlns="http://www.w3.org/2000/svg">
<path d="M26.6665 40V33.3334C30.3554 33.3334 33.3332 30.3556 33.3332 26.6667H39.9998C39.9998 34.0445 34.0221 40 26.6665 40Z" fill="#FFD11A"/>
<path d="M26.6666 40V33.3334C22.9777 33.3334 19.9999 30.3556 19.9999 26.6667H13.3333C13.3333 34.0445 19.311 40 26.6666 40Z" fill="#FFD11A"/>
<path d="M0 26.6666H6.66667C6.66667 30.3555 9.64444 33.3333 13.3333 33.3333V40C5.97778 40 0 34.0444 0 26.6666Z" fill="#FFD11A"/>
<path d="M0 26.6666H6.66667C6.66667 22.9778 9.64444 20 13.3333 20V13.3333C5.97778 13.3333 0 19.3111 0 26.6666Z" fill="#FFD11A"/>
<path d="M13.3333 0V6.66667C9.64444 6.66667 6.66667 9.64444 6.66667 13.3333H0C0 5.97778 5.97778 0 13.3333 0Z" fill="#FFD11A"/>
<path d="M13.3333 0V6.66667C17.0221 6.66667 19.9999 9.64444 19.9999 13.3333H26.6666C26.6666 5.97778 20.6888 0 13.3333 0Z" fill="#FFD11A"/>
<path d="M40.0001 13.3333H33.3334C33.3334 9.64444 30.3556 6.66667 26.6667 6.66667V0C34.0223 0 40.0001 5.97778 40.0001 13.3333Z" fill="#FFD11A"/>
<path d="M40.0001 13.3333H33.3334C33.3334 17.0222 30.3556 20 26.6667 20V26.6666C34.0223 26.6666 40.0001 20.7111 40.0001 13.3333Z" fill="#FFD11A"/>
</svg>
